<?xml version="1.0" encoding="UTF-8"?>
<svg width="128px" height="278px" viewBox="0 0 128 278" version="1.1" xmlns="http://www.w3.org/2000/svg" xmlns:xlink="http://www.w3.org/1999/xlink">
    <!-- Generator: Sketch 48.2 (47327) - http://www.bohemiancoding.com/sketch -->
    <title>Fill 3 Copy 2</title>
    <desc>Created with Sketch.</desc>
    <defs></defs>
    <g id="Desktop-HD" stroke="none" stroke-width="1" fill="none" fill-rule="evenodd" transform="translate(-836.000000, -2130.000000)">
        <g id="Info_Area_4" transform="translate(0.000000, 535.000000)" fill="#CDA079">
            <g id="Oval-2">
                <path d="M837.34197,1640.44897 C837.34197,1640.44897 836,1641.11814 836,1644.46403 L836,1732.79545 C836,1740.82557 844.051823,1748.18653 845.393793,1750.86323 C846.735764,1753.53994 846.064779,1758.22419 846.064779,1764.24678 L846.064779,1885 L903.769509,1885 L903.769509,1776.29198 C903.769509,1776.29198 911.150346,1777.63033 917.189214,1768.26185 C923.228081,1758.89336 958.119313,1705.35917 961.474239,1699.33658 C964.829165,1693.31398 964.829165,1686.62221 961.474239,1684.61467 C958.119313,1682.60714 955.435372,1681.93796 950.06749,1685.28385 C950.06749,1685.28385 956.988032,1676.29078 960.132269,1671.9003 C963.487195,1667.21606 966.171136,1661.19346 961.474239,1657.1784 C956.777342,1653.16334 950.738475,1656.50922 946.041579,1659.85511 C946.041579,1659.85511 954.093402,1647.80992 956.777342,1642.4565 C959.461283,1637.10308 958.119313,1633.08801 954.764387,1631.08048 C951.409461,1629.07295 948.72552,1628.40377 942.686653,1633.08801 L942.015667,1627.06542 C942.015667,1627.06542 952.751431,1614.35105 955.435372,1610.33598 C958.119313,1606.32092 960.803254,1602.30585 956.106357,1597.62161 C951.732204,1593.25924 946.712564,1594.9449 942.015667,1598.29079 C937.751556,1601.32886 854.116601,1649.48286 854.116601,1649.48286 C850.09069,1642.4565 844.722808,1637.77226 837.34197,1640.44897 Z" id="Fill-3-Copy-2"></path>
            </g>
        </g>
    </g>
</svg>