<?xml version="1.0" encoding="UTF-8"?>
<svg width="128px" height="277px" viewBox="0 0 128 277" version="1.1" xmlns="http://www.w3.org/2000/svg" xmlns:xlink="http://www.w3.org/1999/xlink">
    <!-- Generator: Sketch 48.2 (47327) - http://www.bohemiancoding.com/sketch -->
    <title>Fill 3 Copy</title>
    <desc>Created with Sketch.</desc>
    <defs></defs>
    <g id="Desktop-HD" stroke="none" stroke-width="1" fill="none" fill-rule="evenodd" transform="translate(-466.000000, -2130.000000)">
        <g id="Info_Area_4" transform="translate(0.000000, 535.000000)" fill="#F2C69F">
            <g id="Oval-2">
                <path d="M467.34197,1640.44897 C467.34197,1640.44897 466,1641.11814 466,1644.46403 L466,1732.79545 C466,1740.82557 474.051823,1748.18653 475.393793,1750.86323 C476.735764,1753.53994 476.064779,1758.22419 476.064779,1764.24678 L476.064779,1895 L533.769509,1895 L533.769509,1776.29198 C533.769509,1776.29198 541.150346,1777.63033 547.189214,1768.26185 C553.228081,1758.89336 588.119313,1705.35917 591.474239,1699.33658 C594.829165,1693.31398 594.829165,1686.62221 591.474239,1684.61467 C588.119313,1682.60714 585.435372,1681.93796 580.06749,1685.28385 C580.06749,1685.28385 586.988032,1676.29078 590.132269,1671.9003 C593.487195,1667.21606 596.171136,1661.19346 591.474239,1657.1784 C586.777342,1653.16334 580.738475,1656.50922 576.041579,1659.85511 C576.041579,1659.85511 584.093402,1647.80992 586.777342,1642.4565 C589.461283,1637.10308 588.119313,1633.08801 584.764387,1631.08048 C581.409461,1629.07295 578.72552,1628.40377 572.686653,1633.08801 L572.015667,1627.06542 C572.015667,1627.06542 582.751431,1614.35105 585.435372,1610.33598 C588.119313,1606.32092 590.803254,1602.30585 586.106357,1597.62161 C581.732204,1593.25924 576.712564,1594.9449 572.015667,1598.29079 C567.751556,1601.32886 484.116601,1649.48286 484.116601,1649.48286 C480.09069,1642.4565 474.722808,1637.77226 467.34197,1640.44897 Z" id="Fill-3-Copy"></path>
            </g>
        </g>
    </g>
</svg>