<?xml version="1.0" encoding="utf-8"?>
<!-- Generator: Adobe Illustrator 21.1.0, SVG Export Plug-In . SVG Version: 6.00 Build 0)  -->
<svg version="1.1" id="Слой_1" xmlns="http://www.w3.org/2000/svg" xmlns:xlink="http://www.w3.org/1999/xlink" x="0px" y="0px"
	 viewBox="0 0 86 86" style="enable-background:new 0 0 86 86;" xml:space="preserve">
<style type="text/css">
	.st0{fill:#CBD5D3;}
	.st1{fill:#FFFFFF;}
</style>
<title>ICO_White_Paper_Icon</title>
<desc>Created with Sketch.</desc>
<g>
	<path class="st0" d="M43,0C19.3,0,0,19.3,0,43s19.3,43,43,43s43-19.3,43-43S66.7,0,43,0z M59,55.9c0,4.4-3.6,8-8,8H35
		c-4.4,0-8-3.6-8-8V31c0-4.4,3.6-8,8-8h16c4.4,0,8,3.6,8,8V55.9z"/>
	<path class="st1" d="M51,23H35c-4.4,0-8,3.6-8,8v24.9c0,4.4,3.6,8,8,8h16c4.4,0,8-3.6,8-8V31C59,26.6,55.4,23,51,23z"/>
</g>
</svg>
