<?xml version="1.0" encoding="UTF-8"?>
<svg width="369px" height="199px" viewBox="0 0 369 199" version="1.1" xmlns="http://www.w3.org/2000/svg" xmlns:xlink="http://www.w3.org/1999/xlink">
    <!-- Generator: Sketch 48.2 (47327) - http://www.bohemiancoding.com/sketch -->
    <title>Cross Standard Icon</title>
    <desc>Created with Sketch.</desc>
    <defs></defs>
    <g id="Desktop-HD" stroke="none" stroke-width="1" fill="none" fill-rule="evenodd" transform="translate(-532.000000, -2785.000000)">
        <g id="Info_Area_5" transform="translate(309.000000, 2533.000000)" fill="#E8E8E8">
            <g id="Cross-Standard-Icon" transform="translate(223.000000, 252.000000)">
                <path d="M365.34006,153.584616 L345.264885,136.705927 L332.093442,125.614742 C330.396762,124.044905 328.133893,123.078199 325.639359,123.078199 C320.384181,123.078199 316.124553,127.33595 316.124553,132.587758 C316.124553,132.634443 316.130686,132.67877 316.131158,132.724983 L316.122194,132.729227 L316.149559,137.287836 L263.044334,137.287836 C238.842113,137.287836 228.936164,126.8144 223.590868,118.936924 C221.236466,115.466213 218.74146,111.876668 216.173792,108.230536 C221.089257,101.382955 225.698507,94.8918768 229.717977,88.9685616 C230.159604,88.3168602 230.605478,87.6566706 231.056542,86.9894076 C241.913688,70.9076611 249.495431,61.0519739 267.762575,61.0519739 L316.153806,61.0519739 L316.122194,66.3962085 L316.125024,66.3976232 C316.125024,66.4023389 316.124553,66.4070545 316.124553,66.4117701 C316.124553,71.6640498 320.384181,75.9218009 325.639359,75.9218009 C328.334418,75.9218009 330.762426,74.7971209 332.49402,72.9976327 L345.264885,62.2940735 L365.744413,45.1758294 L365.744413,45.1423483 C367.735983,43.3994479 369,40.8459289 369,37.9920237 C369,34.9494929 367.564711,32.2469597 365.34006,30.5064171 L345.264885,13.6277275 L332.093442,2.53654265 C330.396762,0.966706161 328.133893,0 325.639359,0 C320.384181,0 316.124553,4.25775118 316.124553,9.50955924 C316.124553,9.55624408 316.130686,9.60057109 316.131158,9.64678436 L316.122194,9.65102844 L316.147672,13.8955758 L267.762575,13.8955758 C248.313039,13.8955758 231.21366,19.7538152 216.938619,31.3080758 C205.453947,40.6040166 197.963739,51.6980308 191.945149,60.6120047 C191.515318,61.2495592 191.089732,61.8795687 190.667921,62.50109 C189.556304,64.1393033 188.381462,65.8440071 187.158965,67.5991682 C185.936469,65.8440071 184.761627,64.1393033 183.650009,62.50109 C183.22867,61.8795687 182.803084,61.2500308 182.373253,60.6129479 C176.354663,51.6989739 168.864455,40.6044882 157.380254,31.3085474 C143.104742,19.7538152 126.005363,13.8955758 106.555827,13.8955758 L52.852328,13.8955758 L52.8778065,9.65102844 L52.8688418,9.64678436 C52.8693137,9.60057109 52.8754474,9.55624408 52.8754474,9.50955924 C52.8754474,4.25775118 48.6158188,0 43.3606412,0 C40.8661068,0 38.6032381,0.966706161 36.9065584,2.53654265 L23.7355867,13.6277275 L3.65994008,30.5064171 C1.43528912,32.2469597 0,34.9494929 0,37.9920237 C0,40.8459289 1.26401695,43.3994479 3.25558677,45.1423483 L3.25558677,45.1758294 L23.7355867,62.2940735 L36.5064515,72.9976327 C38.2375743,74.7971209 40.6655815,75.9218009 43.3606412,75.9218009 C48.6158188,75.9218009 52.8754474,71.6640498 52.8754474,66.4117701 C52.8754474,66.4070545 52.8749755,66.4023389 52.8749755,66.3976232 L52.8778065,66.3962085 L52.8461943,61.0519739 L106.555827,61.0519739 C118.456648,61.0519739 126.596558,62.3049194 143.262332,86.9898791 C143.712452,87.6571422 144.158326,88.3168602 144.600425,88.96809 C148.619423,94.8918768 153.229145,101.382955 158.144138,108.230536 C155.576471,111.876668 153.081464,115.466213 150.727062,118.936924 C145.381766,126.814872 135.476289,137.287836 111.274068,137.287836 L52.8504407,137.287836 L52.8778065,132.729227 L52.8688418,132.724983 C52.8693137,132.67877 52.8754474,132.634443 52.8754474,132.587758 C52.8754474,127.33595 48.6158188,123.078199 43.3606412,123.078199 C40.8661068,123.078199 38.6032381,124.044905 36.9065584,125.614742 L23.7355867,136.705927 L3.65994008,153.584616 C1.43528912,155.325159 0,158.027692 0,161.070223 C0,163.924128 1.26401695,166.477647 3.25558677,168.220547 L3.25558677,168.254028 L23.7355867,185.372273 L36.5064515,196.075832 C38.2375743,197.87532 40.6655815,199 43.3606412,199 C48.6158188,199 52.8754474,194.742249 52.8754474,189.489969 C52.8754474,189.485254 52.8749755,189.480538 52.8749755,189.475822 L52.8778065,189.474408 L52.8480816,184.444235 L111.274068,184.444235 C143.638376,184.444235 169.770357,172.222711 187.158965,149.053829 C204.548045,172.223182 230.680026,184.444235 263.044334,184.444235 L316.15239,184.444235 L316.122194,189.474408 L316.125024,189.475822 C316.125024,189.480538 316.124553,189.485254 316.124553,189.489969 C316.124553,194.742249 320.384181,199 325.639359,199 C328.334418,199 330.762426,197.87532 332.49402,196.075832 L345.264885,185.372273 L365.744413,168.254028 L365.744413,168.220547 C367.735983,166.477647 369,163.924128 369,161.070223 C369,158.027692 367.564711,155.325159 365.34006,153.584616" id="Fill-1"></path>
            </g>
        </g>
    </g>
</svg>