<?xml version="1.0" encoding="UTF-8"?>
<svg width="169px" height="279px" viewBox="0 0 169 279" version="1.1" xmlns="http://www.w3.org/2000/svg" xmlns:xlink="http://www.w3.org/1999/xlink">
    <!-- Generator: Sketch 48.2 (47327) - http://www.bohemiancoding.com/sketch -->
    <title>Page 1</title>
    <desc>Created with Sketch.</desc>
    <defs>
        <polygon id="path-1" points="0 0 107.292586 0 107.292586 173.739697 0 173.739697"></polygon>
        <polygon id="path-3" points="0.18091254 0 56.1893642 0 56.1893642 68.3690046 0.18091254 68.3690046"></polygon>
    </defs>
    <g id="Desktop-HD" stroke="none" stroke-width="1" fill="none" fill-rule="evenodd" transform="translate(-826.000000, -1231.000000)">
        <g id="Info_Area_3" transform="translate(265.000000, 1073.000000)">
            <g id="Page-1" transform="translate(561.000000, 158.000000)">
                <polygon id="Fill-1" fill="#A47B4C" points="106 173.701961 107.666736 278 116 273.72549 116 169"></polygon>
                <polygon id="Fill-2" fill="#A47B4C" points="144.666667 257 153 252.72549 153 148 143 152.701961"></polygon>
                <polygon id="Fill-3" fill="#A47B4C" points="144.666667 256 153 251.72549 153 147 143 151.701961"></polygon>
                <polygon id="Fill-4" fill="#A47B4C" points="144.666667 256 153 251.72549 153 147 143 151.701961"></polygon>
                <polygon id="Fill-5" fill="#A47B4C" points="144.666667 256 153 251.72549 153 147 143 151.701961"></polygon>
                <g id="Group-42">
                    <path d="M144.224325,257.13928 L133.917793,251.991437 L115.451923,149.892554 L24.4108919,119.86347 C24.4108919,119.86347 5.51558347,109.138798 5.94502229,107.851837 C6.37446112,106.564876 12.8160435,94.9822298 12.8160435,94.9822298 L35.5763014,89.8343869 L55.7599263,95.8402036 L146.371519,151.179514 L144.224325,257.13928 Z" id="Fill-6" fill="#B68855"></path>
                    <path d="M153.24254,251.991437 L153.24254,147.747619 C153.24254,147.747619 69.5019687,99.2720989 54.9010486,91.5503346 C40.3001285,83.8285703 21.4048201,85.115531 9.80997174,91.5503346 C-1.7848766,97.9851382 0.147598125,107.208357 0.147598125,107.208357 L1.22119519,117.289549 L106.433708,173.057847 L115.881362,168.767978 C115.881362,168.767978 29.5641578,119.005497 20.5459424,113.857654 C5.19092771,105.092164 13.5761503,99.1193795 18.8281871,95.8402036 C22.2636977,93.6952691 34.7174237,90.6923608 47.1711497,97.1271643 C57.5824647,102.50666 144.224325,152.466475 144.224325,152.466475 L144.224325,257.13928 L153.24254,251.991437 Z" id="Fill-8" fill="#D4B786"></path>
                    <path d="M22.0490213,114.501134 L43.3062432,102.703994 C43.3062432,102.703994 44.1651209,101.417033 47.6006315,103.132981 C51.0361421,104.848929 121.034671,145.173698 125.758498,148.176606 C130.482325,151.179514 133.488397,152.895462 133.488397,160.617226 C133.488397,168.338991 133.917836,251.991437 133.917836,251.991437 L115.666686,262.501616 L115.666686,168.767978 L22.0490213,114.501134 Z" id="Fill-10" fill="#84643C"></path>
                    <path d="M119.673994,144.563721 C119.673994,144.563721 125.050139,147.726213 125.758283,148.176649 C130.48211,151.179557 133.488182,152.895505 133.488182,160.617269 C133.488182,168.339034 133.917621,251.99148 133.917621,251.99148 L115.666471,262.501659 L115.666471,168.76802 L94.2220136,156.337267 L119.673994,144.563721 Z" id="Fill-12" fill="#6B512E"></path>
                    <g id="Group-16" transform="translate(0.000000, 104.419942)">
                        <mask id="mask-2" fill="white">
                            <use xlink:href="#path-1"></use>
                        </mask>
                        <g id="Clip-15"></g>
                        <path d="M107.292586,68.6379049 L107.292586,173.739697 C107.292586,173.739697 14.9632377,120.116334 6.37446112,114.968491 C-2.21431543,109.820648 0.362317539,96.5220538 0.362317539,84.5104204 L0.362317539,0 C0.362317539,0 -0.0671212887,6.86379049 10.6688494,13.2985941 C24.0578932,21.3236521 107.292586,68.6379049 107.292586,68.6379049" id="Fill-14" fill="#C2905B" mask="url(#mask-2)"></path>
                    </g>
                    <g id="Group-19" transform="translate(112.286952, 0.000000)">
                        <mask id="mask-4" fill="white">
                            <use xlink:href="#path-3"></use>
                        </mask>
                        <g id="Clip-18"></g>
                        <path d="M56.0864286,47.6483478 C54.8174369,60.9568086 40.0271342,71.4734226 30.0066086,67.5301749 C18.6827362,63.0738589 7.02862529,43.0650517 1.52493728,29.1375628 C-3.62231651,16.1113754 6.68120928,-8.57973812e-05 21.0845875,-8.57973812e-05 C29.6832412,-8.57973812e-05 39.7720476,6.66937363 47.8506508,20.5676914 C54.0276989,31.194126 56.7726719,40.4495185 56.0864286,47.6483478" id="Fill-17" fill="#D3C587" mask="url(#mask-4)"></path>
                    </g>
                    <path d="M162.88292,48.3339118 C163.894678,67.8738363 149.225477,71.1307049 139.20538,67.1874573 C127.881079,62.7311413 118.464344,50.227031 113.811804,35.9932455 C108.321428,19.1962632 113.134579,3.08523093 127.537957,3.08523093 C141.941335,3.08523093 161.853555,28.4516556 162.88292,48.3339118" id="Fill-20" fill="#EBDEA7"></path>
                    <path d="M101.313118,68.7039309 C100.044126,82.0123917 85.2538234,92.5290057 75.2332978,88.585758 C63.9094253,84.1294421 52.2553144,64.1206348 46.7516264,50.1931459 C41.6043726,37.1669585 51.9078984,21.0554973 66.3112767,21.0554973 C74.9099303,21.0554973 84.9987367,27.7249567 93.0773399,41.6232745 C99.254388,52.2497091 101.999361,61.5051016 101.313118,68.7039309" id="Fill-22" fill="#D3C587"></path>
                    <path d="M95.8226564,69.3894949 C96.8344143,88.9294194 82.1652134,92.186288 72.1451173,88.2430404 C60.8208154,83.7867244 51.4040808,71.2826141 46.7515405,57.0488286 C41.2611651,40.2518463 46.0743155,24.140814 60.4776938,24.140814 C74.881072,24.140814 94.7932916,49.5072388 95.8226564,69.3894949" id="Fill-24" fill="#EBDEA7"></path>
                    <polygon id="Fill-26" fill="#CFC595" points="69.9314076 184.211506 70.3608464 216.814511 114.163607 241.695752 114.163607 208.66376"></polygon>
                    <polygon id="Fill-28" fill="#A47B4C" points="144.653764 257.568267 153.24254 253.278398 153.24254 148.176606 142.936008 152.895462"></polygon>
                    <polygon id="Fill-30" fill="#E2C498" points="63.4898252 187.643401 69.0725299 184.640493 107.722024 206.089838 153.24254 182.924545 159.684122 185.498467 106.863147 217.243498 64.7781416 191.504284"></polygon>
                    <polyline id="Fill-32" fill="#D8B182" points="107.722024 206.089838 153.24254 182.924545 159.684122 185.498467 115.451923 210.379707"></polyline>
                    <polygon id="Fill-34" fill="#CEA472" points="63.4898252 187.643401 63.919264 220.246406 107.722024 245.127647 107.722024 212.095655"></polygon>
                    <polygon id="Fill-36" fill="#CF9E69" points="159.684122 185.498467 159.684122 218.101472 107.722024 245.127647 107.722024 212.095655"></polygon>
                    <path d="M101.359287,150.828861 C102.869623,148.196597 103.890829,145.275625 104.183706,142.201505 C104.869949,135.002676 102.124547,125.747283 95.9479283,115.120849 C87.8693251,101.222531 77.7805187,94.5530713 69.181865,94.5530713 C55.9469898,94.5530713 46.1841275,108.154959 48.6783082,120.46817 L101.359287,150.828861 Z" id="Fill-38" fill="#D3C587"></path>
                    <path d="M98.422226,149.136379 C98.7065145,147.268141 98.8125859,145.194847 98.6932019,142.887326 C97.6634076,123.00507 77.7516175,97.6386454 63.3482392,97.6386454 C52.0956536,97.6386454 46.6963192,107.471883 47.490781,119.783378 L98.422226,149.136379 Z" id="Fill-40" fill="#EBDEA7"></path>
                </g>
            </g>
        </g>
    </g>
</svg>