<?xml version="1.0" encoding="UTF-8"?>
<svg width="128px" height="267px" viewBox="0 0 128 267" version="1.1" xmlns="http://www.w3.org/2000/svg" xmlns:xlink="http://www.w3.org/1999/xlink">
    <!-- Generator: Sketch 48.2 (47327) - http://www.bohemiancoding.com/sketch -->
    <title>Page 1 Copy</title>
    <desc>Created with Sketch.</desc>
    <defs>
        <polygon id="path-1" points="0 450 263 450 263 0 0 0"></polygon>
    </defs>
    <g id="Desktop-HD" stroke="none" stroke-width="1" fill="none" fill-rule="evenodd" transform="translate(-836.000000, -2116.000000)">
        <g id="Page-1-Copy" transform="translate(767.000000, 2053.000000)">
            <path d="M70.3419705,125.448965 C70.3419705,125.448965 69,126.118143 69,129.46403 L69,217.795445 C69,225.825574 77.0518228,233.186525 78.3937933,235.863235 C79.7357638,238.539944 79.0647785,243.224186 79.0647785,249.246783 L79.0647785,330 L136.769509,330 L136.769509,261.291976 C136.769509,261.291976 144.150346,262.63033 150.189214,253.261847 C156.228081,243.893364 191.119313,190.359172 194.474239,184.336576 C197.829165,178.313979 197.829165,171.622205 194.474239,169.614673 C191.119313,167.607141 188.435372,166.937964 183.06749,170.283851 C183.06749,170.283851 189.988032,161.290776 193.132269,156.900303 C196.487195,152.216061 199.171136,146.193464 194.474239,142.1784 C189.777342,138.163336 183.738475,141.509223 179.041579,144.85511 C179.041579,144.85511 187.093402,132.809917 189.777342,127.456498 C192.461283,122.103078 191.119313,118.088014 187.764387,116.080482 C184.409461,114.07295 181.72552,113.403772 175.686653,118.088014 L175.015667,112.065418 C175.015667,112.065418 185.751431,99.3510471 188.435372,95.3359827 C191.119313,91.3209184 193.803254,87.305854 189.106357,82.6216123 C184.732204,78.2592449 179.712564,79.9449027 175.015667,83.2907897 C170.751556,86.328855 87.1166014,134.48286 87.1166014,134.48286 C83.09069,127.456498 77.7228081,122.772256 70.3419705,125.448965 Z" id="Fill-3" fill="#CDA079"></path>
            <path d="M98.1540392,237 C91.4693177,237 86,231.589575 86,224.976834 L86,76.023166 C86,69.4104247 91.4693177,64 98.1540392,64 L165.845961,64 C172.530682,64 178,69.4104247 178,76.023166 L178,224.976834 C178,231.589575 172.530682,237 165.845961,237 L98.1540392,237 Z" id="Fill-5" stroke="#E6E6E6" fill="#E9E9ED"></path>
            <mask id="mask-2" fill="white">
                <use xlink:href="#path-1"></use>
            </mask>
            <g id="Clip-8"></g>
            <polygon id="Fill-7" fill="#FFFFFF" mask="url(#mask-2)" points="91 216 175 216 175 86 91 86"></polygon>
            <path d="M126.032375,79 C125.46504,79 125,78.5181564 125,77.9287709 L125,77.0712291 C125,76.4825419 125.46504,76 126.032375,76 L142.967625,76 C143.535633,76 144,76.4825419 144,77.0712291 L144,77.9287709 C144,78.5181564 143.535633,79 142.967625,79 L126.032375,79 Z" id="Fill-9" fill="#CED0D5" mask="url(#mask-2)"></path>
            <path d="M123,77 C123,78.1045943 122.104594,79 121,79 C119.895406,79 119,78.1045943 119,77 C119,75.8954057 119.895406,75 121,75 C122.104594,75 123,75.8954057 123,77" id="Fill-10" fill="#CED0D5" mask="url(#mask-2)"></path>
            <path d="M136,225.499701 C136,228.536903 133.537367,231 130.5,231 C127.462036,231 125,228.536903 125,225.499701 C125,222.462499 127.462036,220 130.5,220 C133.537367,220 136,222.462499 136,225.499701" id="Fill-11" fill="#CED0D5" mask="url(#mask-2)"></path>
        </g>
    </g>
</svg>