<?xml version="1.0" encoding="UTF-8"?>
<svg width="128px" height="266px" viewBox="0 0 128 266" version="1.1" xmlns="http://www.w3.org/2000/svg" xmlns:xlink="http://www.w3.org/1999/xlink">
    <!-- Generator: Sketch 48.2 (47327) - http://www.bohemiancoding.com/sketch -->
    <title>Page 1</title>
    <desc>Created with Sketch.</desc>
    <defs>
        <polygon id="path-1" points="40 450 303 450 303 0 40 0"></polygon>
    </defs>
    <g id="Desktop-HD" stroke="none" stroke-width="1" fill="none" fill-rule="evenodd" transform="translate(-466.000000, -2117.000000)">
        <g id="Page-1" transform="translate(357.000000, 2053.000000)">
            <path d="M110.34197,125.448965 C110.34197,125.448965 109,126.118143 109,129.46403 L109,217.795445 C109,225.825574 117.051823,233.186525 118.393793,235.863235 C119.735764,238.539944 119.064779,243.224186 119.064779,249.246783 L119.064779,330 L176.769509,330 L176.769509,261.291976 C176.769509,261.291976 184.150346,262.63033 190.189214,253.261847 C196.228081,243.893364 231.119313,190.359172 234.474239,184.336576 C237.829165,178.313979 237.829165,171.622205 234.474239,169.614673 C231.119313,167.607141 228.435372,166.937964 223.06749,170.283851 C223.06749,170.283851 229.988032,161.290776 233.132269,156.900303 C236.487195,152.216061 239.171136,146.193464 234.474239,142.1784 C229.777342,138.163336 223.738475,141.509223 219.041579,144.85511 C219.041579,144.85511 227.093402,132.809917 229.777342,127.456498 C232.461283,122.103078 231.119313,118.088014 227.764387,116.080482 C224.409461,114.07295 221.72552,113.403772 215.686653,118.088014 L215.015667,112.065418 C215.015667,112.065418 225.751431,99.3510471 228.435372,95.3359827 C231.119313,91.3209184 233.803254,87.305854 229.106357,82.6216123 C224.732204,78.2592449 219.712564,79.9449027 215.015667,83.2907897 C210.751556,86.328855 127.116601,134.48286 127.116601,134.48286 C123.09069,127.456498 117.722808,122.772256 110.34197,125.448965 Z" id="Fill-3" fill="#F2C69F"></path>
            <path d="M205.845961,237 L138.154039,237 C131.469318,237 126,231.589575 126,224.976834 L126,76.023166 C126,69.4104247 131.469318,64 138.154039,64 L205.845961,64 C212.530682,64 218,69.4104247 218,76.023166 L218,224.976834 C218,231.589575 212.530682,237 205.845961,237" id="Fill-5" fill="#535458"></path>
            <mask id="mask-2" fill="white">
                <use xlink:href="#path-1"></use>
            </mask>
            <g id="Clip-8"></g>
            <polygon id="Fill-7" fill="#FFFFFF" mask="url(#mask-2)" points="131 216 215 216 215 86 131 86"></polygon>
            <path d="M166.032375,79 C165.46504,79 165,78.5181564 165,77.9287709 L165,77.0712291 C165,76.4825419 165.46504,76 166.032375,76 L182.967625,76 C183.535633,76 184,76.4825419 184,77.0712291 L184,77.9287709 C184,78.5181564 183.535633,79 182.967625,79 L166.032375,79 Z" id="Fill-9" fill="#404042" mask="url(#mask-2)"></path>
            <path d="M163,77 C163,78.1045943 162.104594,79 161,79 C159.895406,79 159,78.1045943 159,77 C159,75.8954057 159.895406,75 161,75 C162.104594,75 163,75.8954057 163,77" id="Fill-10" fill="#404042" mask="url(#mask-2)"></path>
            <path d="M170.5,231 C167.462036,231 165,228.536903 165,225.499701 C165,222.462499 167.462036,220 170.5,220 C173.537367,220 176,222.462499 176,225.499701 C176,228.536903 173.537367,231 170.5,231 Z" id="Fill-11" fill="#404042" mask="url(#mask-2)"></path>
        </g>
    </g>
</svg>