<svg id="Слой_1" xmlns="http://www.w3.org/2000/svg" viewBox="0 0 86 86"><style>.st0{fill:#CBD5D3;} .st1{fill:#FFFFFF;} .st2{fill:#BCC8C6;}</style><title>FAQ_Icon</title><path class="st0" d="M43 0C19.3 0 0 19.3 0 43s19.3 43 43 43 43-19.3 43-43S66.7 0 43 0zm16 55.9c0 4.4-3.6 8-8 8H35c-4.4 0-8-3.6-8-8V31c0-4.4 3.6-8 8-8h16c4.4 0 8 3.6 8 8v24.9z"/><path class="st1" d="M51 23H35c-4.4 0-8 3.6-8 8v24.9c0 4.4 3.6 8 8 8h16c4.4 0 8-3.6 8-8V31c0-4.4-3.6-8-8-8zm1 31c0 .6-.4 1-1 1H35c-.6 0-1-.4-1-1v-3c0-.6.4-1 1-1h16c.6 0 1 .4 1 1v3zm0-9c0 .6-.4 1-1 1H35c-.6 0-1-.4-1-1v-3c0-.6.4-1 1-1h16c.6 0 1 .4 1 1v3zm0-9c0 .6-.4 1-1 1H35c-.6 0-1-.4-1-1v-3c0-.6.4-1 1-1h16c.6 0 1 .4 1 1v3z"/><path class="st2" d="M51 32H35c-.6 0-1 .4-1 1v3c0 .6.4 1 1 1h16c.6 0 1-.4 1-1v-3c0-.6-.4-1-1-1zM51 41H35c-.6 0-1 .4-1 1v3c0 .6.4 1 1 1h16c.6 0 1-.4 1-1v-3c0-.6-.4-1-1-1zM51 50H35c-.6 0-1 .4-1 1v3c0 .6.4 1 1 1h16c.6 0 1-.4 1-1v-3c0-.6-.4-1-1-1z"/></svg>