<svg width="128" height="278" viewBox="0 0 128 278" xmlns="http://www.w3.org/2000/svg"><title>Fill 3 Copy 2</title><path d="M1.342 45.45S0 46.117 0 49.463v88.33c0 8.032 8.052 15.393 9.394 18.07 1.342 2.676.67 7.36.67 13.383V290H67.77V181.292s7.38 1.338 13.42-8.03c6.038-9.37 40.93-62.903 44.284-68.925 3.355-6.023 3.355-12.715 0-14.722-3.355-2.008-6.04-2.677-11.407.67 0 0 6.92-8.994 10.065-13.385 3.355-4.684 6.04-10.707 1.342-14.722-4.697-4.015-10.736-.67-15.432 2.677 0 0 8.05-12.045 10.735-17.398 2.684-5.354 1.342-9.37-2.013-11.377-3.355-2.007-6.038-2.676-12.077 2.008l-.67-6.023s10.734-12.714 13.418-16.73c2.684-4.014 5.368-8.03.67-12.713-4.373-4.363-9.392-2.677-14.09.67-4.263 3.037-87.898 51.19-87.898 51.19-4.026-7.025-9.394-11.71-16.775-9.033z" fill="#CDA079" fill-rule="evenodd"/></svg>