<svg width="369" height="199" viewBox="0 0 369 199" xmlns="http://www.w3.org/2000/svg"><title>Cross Standard Icon</title><path d="M365.34 153.585l-20.075-16.88-13.172-11.09c-1.696-1.57-3.96-2.537-6.454-2.537-5.256 0-9.515 4.258-9.515 9.51 0 .046.006.09.006.137l-.008.004.028 4.558h-53.106c-24.202 0-34.108-10.474-39.453-18.35-2.354-3.472-4.85-7.06-7.416-10.707 4.915-6.847 9.525-13.338 13.544-19.26.442-.653.887-1.313 1.34-1.98 10.856-16.082 18.437-25.938 36.705-25.938h48.39l-.03 5.344.002.002v.014c0 5.252 4.26 9.51 9.514 9.51 2.694 0 5.122-1.125 6.854-2.924l12.77-10.704 20.48-17.118v-.034c1.992-1.743 3.256-4.296 3.256-7.15 0-3.043-1.435-5.745-3.66-7.486l-20.075-16.878-13.172-11.09C330.397.967 328.133 0 325.64 0c-5.256 0-9.515 4.258-9.515 9.51 0 .046.006.09.006.137l-.008.004.026 4.246h-48.385c-19.45 0-36.55 5.858-50.824 17.412-11.486 9.296-18.976 20.39-24.995 29.304-.43.638-.855 1.268-1.277 1.89-1.112 1.637-2.287 3.342-3.51 5.097-1.222-1.756-2.396-3.46-3.508-5.1l-1.277-1.887c-6.018-8.914-13.51-20.01-24.993-29.304-14.275-11.556-31.375-17.414-50.824-17.414H52.852l.026-4.245-.01-.003c0-.046.007-.09.007-.137 0-5.252-4.26-9.51-9.514-9.51-2.494 0-4.757.967-6.453 2.537l-13.17 11.09L3.66 30.508C1.435 32.246 0 34.948 0 37.99c0 2.854 1.264 5.407 3.256 7.15v.034l20.48 17.118 12.77 10.704c1.732 1.8 4.16 2.924 6.855 2.924 5.256 0 9.515-4.258 9.515-9.51v-.014l.003-.002-.032-5.344h53.71c11.9 0 20.04 1.253 36.706 25.938.45.667.896 1.327 1.338 1.978 4.02 5.924 8.63 12.415 13.544 19.263-2.568 3.647-5.063 7.236-7.417 10.707-5.345 7.878-15.25 18.35-39.453 18.35H52.85l.028-4.558-.01-.005c0-.046.007-.09.007-.137 0-5.252-4.26-9.51-9.514-9.51-2.494 0-4.757.967-6.453 2.537l-13.17 11.09-20.077 16.88C1.435 155.325 0 158.028 0 161.07c0 2.854 1.264 5.408 3.256 7.15v.034l20.48 17.118 12.77 10.704c1.732 1.8 4.16 2.924 6.855 2.924 5.256 0 9.515-4.258 9.515-9.51v-.014l.003-.002-.03-5.03h58.426c32.364 0 58.496-12.22 75.885-35.39 17.388 23.17 43.52 35.39 75.884 35.39h53.108l-.03 5.03.003.002v.014c0 5.252 4.26 9.51 9.514 9.51 2.694 0 5.122-1.125 6.854-2.924l12.77-10.704 20.48-17.118v-.033c1.992-1.742 3.256-4.296 3.256-7.15 0-3.042-1.435-5.745-3.66-7.485" fill="#E8E8E8" fill-rule="evenodd"/></svg>