<svg width="169" height="279" viewBox="0 0 169 279" xmlns="http://www.w3.org/2000/svg" xmlns:xlink="http://www.w3.org/1999/xlink"><title>Page 1</title><defs><path id="a" d="M0 0h107.293v173.74H0z"/><path id="c" d="M.18 0h56.01v68.37H.18z"/></defs><g fill="none" fill-rule="evenodd"><path fill="#A47B4C" d="M106 173.702L107.667 278l8.333-4.275V169M144.667 257l8.333-4.275V148l-10 4.702"/><path fill="#A47B4C" d="M144.667 256l8.333-4.275V147l-10 4.702"/><path fill="#A47B4C" d="M144.667 256l8.333-4.275V147l-10 4.702"/><path fill="#A47B4C" d="M144.667 256l8.333-4.275V147l-10 4.702"/><path d="M144.224 257.14l-10.306-5.15-18.466-102.097-91.04-30.03S5.515 109.14 5.944 107.853c.43-1.288 6.87-12.87 6.87-12.87l22.76-5.15L55.76 95.84l90.612 55.34-2.148 105.96z" fill="#B68855"/><path d="M153.243 251.99V147.75S69.503 99.272 54.9 91.55c-14.6-7.72-33.495-6.434-45.09 0C-1.785 97.985.148 107.208.148 107.208L1.22 117.29l105.214 55.768 9.447-4.29s-86.316-49.763-95.334-54.91c-15.355-8.766-6.97-14.74-1.718-18.018 3.436-2.145 15.89-5.148 28.343 1.287 10.412 5.38 97.054 55.34 97.054 55.34v104.672l9.02-5.15z" fill="#D4B786"/><path d="M22.05 114.5l21.256-11.796s.86-1.287 4.295.43c3.436 1.715 73.435 42.04 78.158 45.043 4.724 3.003 7.73 4.718 7.73 12.44 0 7.722.43 91.374.43 91.374l-18.25 10.512v-93.734L22.047 114.5z" fill="#84643C"/><path d="M119.674 144.564s5.376 3.162 6.084 3.613c4.724 3.003 7.73 4.72 7.73 12.44 0 7.722.43 91.374.43 91.374l-18.252 10.512v-93.734l-21.444-12.43 25.452-11.774z" fill="#6B512E"/><g transform="translate(0 104.42)"><mask id="b" fill="#fff"><use xlink:href="#a"/></mask><path d="M107.293 68.638V173.74s-92.33-53.624-100.92-58.772C-2.213 109.82.364 96.522.364 84.51V0s-.43 6.864 10.306 13.3c13.388 8.024 96.623 55.338 96.623 55.338" fill="#C2905B" mask="url(#b)"/></g><g transform="translate(112.287)"><mask id="d" fill="#fff"><use xlink:href="#c"/></mask><path d="M56.086 47.648c-1.27 13.31-16.06 23.825-26.08 19.882C18.684 63.074 7.03 43.065 1.527 29.138-3.623 16.11 6.68 0 21.085 0 29.682 0 39.77 6.67 47.85 20.568c6.178 10.626 8.923 19.882 8.236 27.08" fill="#D3C587" mask="url(#d)"/></g><path d="M162.883 48.334c1.012 19.54-13.658 22.797-23.678 18.853-11.324-4.456-20.74-16.96-25.393-31.194-5.49-16.797-.677-32.908 13.726-32.908s34.316 25.367 35.345 45.25" fill="#EBDEA7"/><path d="M101.313 68.704c-1.27 13.308-16.06 23.825-26.08 19.882C63.91 84.13 52.255 64.12 46.753 50.193c-5.15-13.026 5.155-29.138 19.558-29.138 8.6 0 18.69 6.67 26.767 20.568 6.177 10.627 8.922 19.882 8.236 27.08" fill="#D3C587"/><path d="M95.823 69.39c1.01 19.54-13.658 22.796-23.678 18.853-11.324-4.456-20.74-16.96-25.393-31.194-5.49-16.798-.678-32.91 13.726-32.91 14.403 0 34.315 25.367 35.345 45.25" fill="#EBDEA7"/><path fill="#CFC595" d="M69.93 184.212l.43 32.603 43.804 24.88v-33.03"/><path fill="#A47B4C" d="M144.654 257.568l8.59-4.29v-105.1l-10.308 4.717"/><path fill="#E2C498" d="M63.49 187.643l5.583-3.003 38.65 21.45 45.52-23.165 6.44 2.573-52.82 31.745-42.085-25.74"/><path fill="#D8B182" d="M107.722 206.09l45.52-23.165 6.442 2.573-44.232 24.882"/><path fill="#CEA472" d="M63.49 187.643l.43 32.603 43.802 24.882v-33.032"/><path fill="#CF9E69" d="M159.684 185.498V218.1l-51.962 27.028v-33.032"/><path d="M101.36 150.83c1.51-2.633 2.53-5.554 2.824-8.628.686-7.2-2.06-16.455-8.236-27.08-8.08-13.9-18.167-20.57-26.766-20.57-13.235 0-22.998 13.603-20.504 25.916l52.68 30.36z" fill="#D3C587"/><path d="M98.422 149.136c.285-1.868.39-3.94.27-6.25-1.03-19.88-20.94-45.247-35.344-45.247-11.252 0-16.652 9.832-15.857 22.143l50.932 29.353z" fill="#EBDEA7"/></g></svg>