<svg width="1302" height="752" viewBox="0 0 1302 752" xmlns="http://www.w3.org/2000/svg"><title>Raining Coins</title><defs><linearGradient x1="50%" y1="12.24%" x2="50%" y2="62.165%" id="a"><stop stop-color="#FAEEB0" offset="0%"/><stop stop-color="#DFCC82" offset="100%"/></linearGradient><linearGradient x1="50%" y1="0%" x2="50%" y2="57.492%" id="b"><stop stop-color="#29B3A5" offset="0%"/><stop stop-color="#35C1B3" offset="100%"/></linearGradient><linearGradient x1="50%" y1="0%" x2="50%" y2="50%" id="c"><stop stop-color="#29B3A5" offset="0%"/><stop stop-color="#35C1B3" offset="100%"/></linearGradient><linearGradient x1="50%" y1="0%" x2="50%" y2="80.709%" id="d"><stop stop-color="#29B3A5" offset="0%"/><stop stop-color="#35C1B3" offset="100%"/></linearGradient></defs><g fill="none" fill-rule="evenodd"><g transform="translate(9 231)"><path fill="#35C1B3" d="M5 0h107v161H5z"/><circle stroke="#29B3A5" stroke-width="17" fill="url(#a)" cx="59" cy="154" r="59"/></g><g transform="translate(1085 231)"><path fill="url(#b)" d="M5 0h107v300H5z"/><circle stroke="#29B3A5" stroke-width="17" fill="url(#a)" cx="59" cy="293" r="59"/></g><g transform="translate(218 233)"><path fill="url(#c)" d="M3 0h69v193H3z"/><circle stroke="#29B3A5" stroke-width="14" fill="url(#a)" cx="38" cy="189" r="38"/></g><g transform="translate(1217 231)"><path fill="url(#d)" d="M3 0h69v478H3z"/><circle stroke="#29B3A5" stroke-width="17" fill="url(#a)" cx="38" cy="474" r="38"/></g><g transform="translate(869 232)"><path fill="url(#d)" d="M1 0h48v187H1z"/><circle stroke="#29B3A5" stroke-width="12" fill="url(#a)" cx="26" cy="185" r="26"/></g><g transform="translate(330 157)"><path fill="#35C1B3" d="M2 0h38v213H2z"/><circle stroke="#29B3A5" stroke-width="10" fill="url(#a)" cx="21" cy="211" r="21"/></g><g transform="translate(929 226)"><path fill="#35C1B3" d="M2 0h38v307H2z"/><circle stroke="#29B3A5" stroke-width="16" fill="url(#a)" cx="21" cy="305" r="21"/></g><g transform="translate(623)"><path fill="#35C1B3" d="M3 0h37v297H3z"/><circle stroke="#29B3A5" stroke-width="10" fill="url(#a)" cx="20.5" cy="294.5" r="20.5"/></g></g></svg>