<svg width="128" height="266" viewBox="0 0 128 266" xmlns="http://www.w3.org/2000/svg" xmlns:xlink="http://www.w3.org/1999/xlink"><title>Page 1</title><defs><path id="a" d="M40 450h263V0H40z"/></defs><g transform="translate(-109 -64)" fill="none" fill-rule="evenodd"><path d="M110.342 125.45s-1.342.668-1.342 4.014v88.33c0 8.032 8.052 15.393 9.394 18.07 1.342 2.676.67 7.36.67 13.383V330h57.706v-68.708s7.38 1.338 13.42-8.03c6.038-9.37 40.93-62.903 44.284-68.925 3.355-6.023 3.355-12.715 0-14.722-3.355-2.008-6.04-2.677-11.407.67 0 0 6.92-8.994 10.065-13.385 3.355-4.684 6.04-10.707 1.342-14.722-4.697-4.015-10.736-.67-15.432 2.677 0 0 8.05-12.045 10.735-17.4 2.684-5.352 1.342-9.367-2.013-11.375-3.355-2.007-6.038-2.676-12.077 2.008l-.67-6.023s10.734-12.714 13.418-16.73c2.684-4.014 5.368-8.03.67-12.713-4.373-4.363-9.392-2.677-14.09.67-4.263 3.037-87.898 51.19-87.898 51.19-4.026-7.026-9.394-11.71-16.775-9.033z" fill="#F2C69F"/><path d="M205.846 237h-67.692C131.47 237 126 231.59 126 224.977V76.023C126 69.41 131.47 64 138.154 64h67.692C212.53 64 218 69.41 218 76.023v148.954c0 6.613-5.47 12.023-12.154 12.023" fill="#535458"/><mask id="b" fill="#fff"><use xlink:href="#a"/></mask><path fill="#FFF" mask="url(#b)" d="M131 216h84V86h-84"/><path d="M166.032 79c-.567 0-1.032-.482-1.032-1.07v-.86c0-.587.465-1.07 1.032-1.07h16.936c.568 0 1.032.483 1.032 1.07v.86c0 .588-.464 1.07-1.032 1.07h-16.936zM163 77c0 1.105-.895 2-2 2s-2-.895-2-2 .895-2 2-2 2 .895 2 2M170.5 231c-3.038 0-5.5-2.463-5.5-5.5 0-3.038 2.462-5.5 5.5-5.5 3.037 0 5.5 2.462 5.5 5.5 0 3.037-2.463 5.5-5.5 5.5z" fill="#404042" mask="url(#b)"/></g></svg>