<svg width="128" height="267" viewBox="0 0 128 267" xmlns="http://www.w3.org/2000/svg" xmlns:xlink="http://www.w3.org/1999/xlink"><title>Page 1 Copy</title><defs><path id="a" d="M0 450h263V0H0z"/></defs><g transform="translate(-69 -63)" fill="none" fill-rule="evenodd"><path d="M70.342 125.45S69 126.117 69 129.463v88.33c0 8.032 8.052 15.393 9.394 18.07 1.342 2.676.67 7.36.67 13.383V330h57.706v-68.708s7.38 1.338 13.42-8.03c6.038-9.37 40.93-62.903 44.284-68.925 3.355-6.023 3.355-12.715 0-14.722-3.355-2.008-6.04-2.677-11.407.67 0 0 6.92-8.994 10.065-13.385 3.355-4.684 6.04-10.707 1.342-14.722-4.697-4.015-10.736-.67-15.432 2.677 0 0 8.05-12.045 10.735-17.4 2.684-5.352 1.342-9.367-2.013-11.375-3.355-2.007-6.038-2.676-12.077 2.008l-.67-6.023s10.734-12.714 13.418-16.73c2.684-4.014 5.368-8.03.67-12.713-4.373-4.363-9.392-2.677-14.09.67-4.263 3.037-87.898 51.19-87.898 51.19-4.026-7.026-9.394-11.71-16.775-9.033z" fill="#CDA079"/><path d="M98.154 237C91.47 237 86 231.59 86 224.977V76.023C86 69.41 91.47 64 98.154 64h67.692C172.53 64 178 69.41 178 76.023v148.954c0 6.613-5.47 12.023-12.154 12.023H98.154z" stroke="#E6E6E6" fill="#E9E9ED"/><mask id="b" fill="#fff"><use xlink:href="#a"/></mask><path fill="#FFF" mask="url(#b)" d="M91 216h84V86H91"/><path d="M126.032 79c-.567 0-1.032-.482-1.032-1.07v-.86c0-.587.465-1.07 1.032-1.07h16.936c.568 0 1.032.483 1.032 1.07v.86c0 .588-.464 1.07-1.032 1.07h-16.936zM123 77c0 1.105-.895 2-2 2s-2-.895-2-2 .895-2 2-2 2 .895 2 2M136 225.5c0 3.037-2.463 5.5-5.5 5.5-3.038 0-5.5-2.463-5.5-5.5 0-3.038 2.462-5.5 5.5-5.5 3.037 0 5.5 2.462 5.5 5.5" fill="#CED0D5" mask="url(#b)"/></g></svg>